# Blender v2.79 (sub 0) OBJ File: ''
# www.blender.org
o Triangle.001_Triangle.000
v 0.309470 -4.884423 0.016250
v 0.425924 -4.084789 0.037808
v 0.373841 -4.806275 0.018357
v 0.228803 -4.811011 0.018230
v 0.220655 -4.117153 0.036935
v 0.137136 -4.145570 0.036169
v 0.118803 -4.709182 0.020975
v 0.039358 -4.796803 0.018613
v -0.014827 -4.784962 0.018932
v -0.057605 -4.706814 0.021039
v -0.031123 -4.119521 0.036871
v -0.092235 -4.112416 0.037063
v -0.114642 -4.716286 0.020783
v -0.179828 -4.822852 0.017910
v -0.285754 -4.770753 0.019315
v -0.275569 -3.863764 0.043766
v -0.399421 -4.045162 0.038876
v -0.493939 -4.277237 0.032619
v -0.437851 -3.611080 0.050578
v -0.551791 -3.984064 0.040523
v -0.211465 -3.380183 0.056803
v 0.112689 -3.266741 0.059861
v 0.427769 -3.384594 0.056684
v 0.309470 -4.879923 -0.150654
v 0.425924 -4.080289 -0.129097
v 0.373841 -4.801775 -0.148547
v 0.228803 -4.806511 -0.148675
v 0.220655 -4.112653 -0.129969
v 0.137136 -4.141070 -0.130735
v 0.118803 -4.704683 -0.145930
v 0.039358 -4.792303 -0.148292
v -0.014827 -4.780462 -0.147972
v -0.057605 -4.702314 -0.145866
v -0.031123 -4.115021 -0.130033
v -0.092235 -4.107917 -0.129842
v -0.114642 -4.711787 -0.146121
v -0.179828 -4.818352 -0.148994
v -0.285754 -4.766253 -0.147589
v -0.275569 -3.859264 -0.123138
v -0.399421 -4.040662 -0.128028
v -0.493939 -4.272738 -0.134285
v -0.437851 -3.606581 -0.116326
v -0.551791 -3.979565 -0.126381
v -0.211465 -3.375683 -0.110101
v 0.112689 -3.262241 -0.107043
v 0.427769 -3.380094 -0.110220
v 0.416664 -4.447639 0.045474
v 0.346883 -4.851381 0.025059
v 0.242267 -4.463029 -0.001130
v 0.176255 -4.120565 0.025482
v 0.119316 -4.426732 0.018791
v 0.083814 -4.758982 0.026677
v 0.011608 -4.795044 0.022303
v -0.039706 -4.748584 0.024154
v -0.027819 -4.413630 0.008702
v -0.060991 -4.107757 0.029123
v -0.122795 -4.412716 0.004291
v -0.140823 -4.775096 0.027640
v -0.236966 -4.808585 0.029784
v -0.271738 -4.315657 -0.032899
v -0.347276 -3.944702 0.014311
v -0.437118 -4.167174 0.061984
v -0.507014 -3.792900 0.059100
v -0.541933 -4.136772 0.074859
v -0.331162 -3.487292 0.064231
v -0.052935 -3.310109 0.071485
v 0.277118 -3.301414 0.082682
v 0.456378 -3.735649 0.078858
v 0.263705 -4.856041 0.026590
v 0.416664 -4.442200 -0.156302
v 0.346883 -4.846455 -0.157669
v 0.242267 -4.460078 -0.110594
v 0.176255 -4.116678 -0.118717
v 0.119316 -4.422760 -0.128531
v 0.083814 -4.754103 -0.154307
v 0.011608 -4.790349 -0.151882
v -0.039706 -4.743856 -0.151228
v -0.027819 -4.410222 -0.117750
v -0.060991 -4.103692 -0.121662
v -0.122795 -4.409546 -0.113297
v -0.140823 -4.770142 -0.156136
v -0.236966 -4.803467 -0.160082
v -0.271738 -4.314631 -0.070932
v -0.347276 -3.941672 -0.098087
v -0.437118 -4.161252 -0.157677
v -0.507014 -3.787677 -0.134631
v -0.541933 -4.130200 -0.168895
v -0.331162 -3.482237 -0.123290
v -0.052935 -3.304920 -0.120987
v 0.277118 -3.295634 -0.131699
v 0.456378 -3.729445 -0.151276
v 0.263705 -4.851026 -0.159449
v -0.375397 -4.060288 -0.045045
v -0.282689 -3.884768 -0.040313
v -0.082963 -4.712317 -0.062623
v -0.029023 -4.807099 -0.065178
v 0.206384 -4.821679 -0.065571
v 0.311118 -4.908935 -0.067923
v 0.397484 -4.816422 -0.065429
v 0.455102 -4.084012 -0.045684
v -0.496236 -4.299537 -0.051495
v -0.048528 -4.134641 -0.047049
v -0.459996 -3.591371 -0.032403
v -0.578220 -3.980035 -0.042881
v -0.077386 -4.130088 -0.046926
v 0.207468 -4.135657 -0.047077
v -0.089642 -4.724012 -0.062938
v 0.155863 -4.160284 -0.047740
v -0.224645 -3.350300 -0.025904
v -0.173441 -4.846794 -0.066248
v 0.142054 -4.719158 -0.062807
v 0.112937 -3.233925 -0.022767
v -0.305806 -4.783734 -0.064548
v 0.046375 -4.822225 -0.065586
v 0.446940 -3.366154 -0.026332
v 0.492563 -3.718955 -0.035843
v 0.007336 -4.825174 -0.065665
v -0.275030 -4.320086 -0.052049
v 0.293554 -3.262605 -0.023540
v 0.103020 -4.782354 -0.064511
v -0.248007 -4.840730 -0.066084
v -0.060634 -3.271862 -0.023790
v 0.138003 -4.437928 -0.055225
v -0.120471 -4.798392 -0.064943
v -0.352058 -3.458247 -0.028814
v 0.179390 -4.148162 -0.047414
v -0.108164 -4.422854 -0.054819
v -0.574372 -4.168537 -0.047963
v 0.230194 -4.473464 -0.056183
v -0.062909 -4.136913 -0.047110
v -0.537097 -3.778463 -0.037447
v 0.363724 -4.877982 -0.067089
v -0.044573 -4.422329 -0.054805
v -0.422416 -4.203563 -0.048907
v 0.449460 -4.454268 -0.055666
v 0.248681 -4.884958 -0.067277
v -0.062886 -4.765455 -0.064055
v -0.341723 -3.965575 -0.042491
v -0.099222 -3.316594 -0.230578
v -0.099222 0.019337 -0.230587
v 0.341910 -3.316595 -0.230578
v 0.341910 0.019337 -0.230587
v -0.099222 -3.316593 0.210554
v -0.099222 0.019338 0.210544
v 0.341910 -3.316593 0.210554
v 0.341910 0.019338 0.210544
vn -0.0428 -0.0319 0.9986
vn -0.0428 0.0219 -0.9988
vn 0.8902 -0.3444 -0.2982
vn -0.8885 -0.3338 -0.3149
vn -0.7882 -0.5279 -0.3163
vn 0.9435 -0.1231 -0.3077
vn 0.8091 -0.5341 -0.2451
vn -0.9729 -0.0139 -0.2308
vn 0.5345 -0.7785 -0.3290
vn -0.8789 0.3684 -0.3031
vn 0.0044 -0.9432 -0.3322
vn -0.9781 -0.0662 -0.1975
vn -0.9610 -0.0000 -0.2767
vn 0.9640 0.0602 -0.2589
vn 0.5230 -0.7850 -0.3320
vn -0.6098 0.7263 -0.3170
vn 0.6764 -0.6633 -0.3202
vn 0.9666 0.0174 -0.2558
vn -0.2056 0.9245 -0.3211
vn -0.6498 -0.6865 -0.3264
vn 0.5644 -0.7524 -0.3395
vn 0.5159 0.8052 -0.2926
vn -0.9941 -0.0177 -0.1071
vn -0.4013 -0.8459 -0.3514
vn 0.9466 -0.0951 -0.3079
vn 0.9526 0.1208 -0.2794
vn 0.9526 0.1056 0.2855
vn 0.9466 -0.1116 0.3024
vn 0.0336 -0.9330 -0.3582
vn 0.0336 -0.9510 0.3074
vn -0.4013 -0.8636 0.3054
vn -0.9757 0.0680 -0.2082
vn -0.9757 0.0567 0.2115
vn -0.9941 -0.0234 0.1060
vn 0.1459 0.9388 -0.3119
vn 0.1459 0.9207 0.3621
vn 0.5159 0.7882 0.3355
vn 0.8043 -0.5000 -0.3210
vn 0.8043 -0.5165 0.2936
vn 0.5644 -0.7696 0.2985
vn -0.1189 -0.9296 -0.3487
vn -0.1189 -0.9471 0.2981
vn -0.6497 -0.7031 0.2889
vn -0.4046 0.8558 -0.3223
vn -0.4046 0.8372 0.3679
vn -0.2056 0.9058 0.3704
vn 0.9678 -0.0594 -0.2447
vn 0.9678 -0.0725 0.2412
vn 0.9666 0.0036 0.2564
vn 0.8831 -0.3511 -0.3112
vn 0.8831 -0.3674 0.2918
vn 0.6764 -0.6796 0.2840
vn -0.7323 0.6064 -0.3099
vn -0.7323 0.5888 0.3421
vn -0.6098 0.7082 0.3557
vn 0.1648 -0.9333 -0.3190
vn 0.1648 -0.9491 0.2683
vn 0.5230 -0.8018 0.2893
vn 0.9682 -0.1032 -0.2278
vn 0.9682 -0.1154 0.2219
vn 0.9640 0.0461 0.2617
vn -0.8583 -0.4279 -0.2832
vn -0.8583 -0.4426 0.2597
vn -0.9610 -0.0149 0.2763
vn -0.9710 0.0678 -0.2295
vn -0.9710 0.0553 0.2328
vn -0.9781 -0.0768 0.1936
vn -0.2489 -0.9086 -0.3353
vn -0.2489 -0.9254 0.2859
vn 0.0044 -0.9597 0.2809
vn -0.9320 0.2013 -0.3013
vn -0.9320 0.1848 0.3117
vn -0.8789 0.3515 0.3225
vn 0.8377 -0.4469 -0.3140
vn 0.8377 -0.4631 0.2895
vn 0.5345 -0.7951 0.2865
vn -0.9580 0.1280 -0.2566
vn -0.9580 0.1140 0.2631
vn -0.9729 -0.0263 0.2297
vn 0.9258 -0.2627 -0.2718
vn 0.9258 -0.2770 0.2573
vn 0.8091 -0.5465 0.2159
vn 0.9476 -0.0031 -0.3194
vn 0.9476 -0.0203 0.3187
vn 0.9435 -0.1395 0.3006
vn -0.3926 -0.8554 -0.3379
vn -0.3926 -0.8724 0.2913
vn -0.7882 -0.5442 0.2874
vn -0.7512 -0.5729 -0.3278
vn -0.7512 -0.5897 0.2964
vn -0.8885 -0.3503 0.2965
vn 0.7471 -0.6287 -0.2159
vn 0.7471 -0.6394 0.1818
vn 0.8902 -0.3599 0.2792
vn 0.0000 -0.0000 -1.0000
vn 1.0000 0.0000 0.0000
vn 0.0000 0.0000 1.0000
vn -1.0000 0.0000 -0.0000
vn -0.0000 -1.0000 0.0000
vn 0.0000 1.0000 -0.0000
s 1
f 2//1 68//1 23//1 67//1 22//1 66//1 21//1 65//1 19//1 63//1 20//1 64//1 18//1 62//1 17//1 61//1 16//1 60//1 15//1 59//1 14//1 58//1 13//1 57//1 12//1 56//1 11//1 55//1 10//1 54//1 9//1 53//1 8//1 52//1 7//1 51//1 6//1 50//1 5//1 49//1 4//1 69//1 1//1 48//1 3//1 47//1
f 25//2 70//2 26//2 71//2 24//2 92//2 27//2 72//2 28//2 73//2 29//2 74//2 30//2 75//2 31//2 76//2 32//2 77//2 33//2 78//2 34//2 79//2 35//2 80//2 36//2 81//2 37//2 82//2 38//2 83//2 39//2 84//2 40//2 85//2 41//2 87//2 43//2 86//2 42//2 88//2 44//2 89//2 45//2 90//2 46//2 91//2
f 138//3 93//3 40//3 84//3
f 137//4 95//4 33//4 77//4
f 136//5 97//5 27//5 92//5
f 135//6 99//6 26//6 70//6
f 134//7 101//7 41//7 85//7
f 133//8 102//8 34//8 78//8
f 132//9 98//9 24//9 71//9
f 131//10 103//10 42//10 86//10
f 130//11 105//11 35//11 79//11
f 129//12 106//12 28//12 72//12
f 128//13 104//13 43//13 87//13
f 127//14 107//14 36//14 80//14
f 126//15 108//15 29//15 73//15
f 125//16 109//16 44//16 88//16
f 124//17 110//17 37//17 81//17
f 123//18 111//18 30//18 74//18
f 122//19 112//19 45//19 89//19
f 121//20 113//20 38//20 82//20
f 120//21 114//21 31//21 75//21
f 119//22 115//22 46//22 90//22
f 118//23 94//23 39//23 83//23
f 117//24 96//24 32//24 76//24
f 116//25 100//25 25//25 91//25
f 115//26 116//26 91//26 46//26
f 23//27 68//27 116//27 115//27
f 68//28 2//28 100//28 116//28
f 114//29 117//29 76//29 31//29
f 8//30 53//30 117//30 114//30
f 53//31 9//31 96//31 117//31
f 113//32 118//32 83//32 38//32
f 15//33 60//33 118//33 113//33
f 60//34 16//34 94//34 118//34
f 112//35 119//35 90//35 45//35
f 22//36 67//36 119//36 112//36
f 67//37 23//37 115//37 119//37
f 111//38 120//38 75//38 30//38
f 7//39 52//39 120//39 111//39
f 52//40 8//40 114//40 120//40
f 110//41 121//41 82//41 37//41
f 14//42 59//42 121//42 110//42
f 59//43 15//43 113//43 121//43
f 109//44 122//44 89//44 44//44
f 21//45 66//45 122//45 109//45
f 66//46 22//46 112//46 122//46
f 108//47 123//47 74//47 29//47
f 6//48 51//48 123//48 108//48
f 51//49 7//49 111//49 123//49
f 107//50 124//50 81//50 36//50
f 13//51 58//51 124//51 107//51
f 58//52 14//52 110//52 124//52
f 103//53 125//53 88//53 42//53
f 19//54 65//54 125//54 103//54
f 65//55 21//55 109//55 125//55
f 106//56 126//56 73//56 28//56
f 5//57 50//57 126//57 106//57
f 50//58 6//58 108//58 126//58
f 105//59 127//59 80//59 35//59
f 12//60 57//60 127//60 105//60
f 57//61 13//61 107//61 127//61
f 101//62 128//62 87//62 41//62
f 18//63 64//63 128//63 101//63
f 64//64 20//64 104//64 128//64
f 97//65 129//65 72//65 27//65
f 4//66 49//66 129//66 97//66
f 49//67 5//67 106//67 129//67
f 102//68 130//68 79//68 34//68
f 11//69 56//69 130//69 102//69
f 56//70 12//70 105//70 130//70
f 104//71 131//71 86//71 43//71
f 20//72 63//72 131//72 104//72
f 63//73 19//73 103//73 131//73
f 99//74 132//74 71//74 26//74
f 3//75 48//75 132//75 99//75
f 48//76 1//76 98//76 132//76
f 95//77 133//77 78//77 33//77
f 10//78 55//78 133//78 95//78
f 55//79 11//79 102//79 133//79
f 93//80 134//80 85//80 40//80
f 17//81 62//81 134//81 93//81
f 62//82 18//82 101//82 134//82
f 100//83 135//83 70//83 25//83
f 2//84 47//84 135//84 100//84
f 47//85 3//85 99//85 135//85
f 98//86 136//86 92//86 24//86
f 1//87 69//87 136//87 98//87
f 69//88 4//88 97//88 136//88
f 96//89 137//89 77//89 32//89
f 9//90 54//90 137//90 96//90
f 54//91 10//91 95//91 137//91
f 94//92 138//92 84//92 39//92
f 16//93 61//93 138//93 94//93
f 61//94 17//94 93//94 138//94
f 139//95 140//95 142//95 141//95
f 141//96 142//96 146//96 145//96
f 145//97 146//97 144//97 143//97
f 143//98 144//98 140//98 139//98
f 141//99 145//99 143//99 139//99
f 146//100 142//100 140//100 144//100
