# Blender v2.79 (sub 0) OBJ File: ''
# www.blender.org
o Triangle.001_Triangle.003
v -0.099222 -3.316594 -0.230578
v -0.099222 0.019337 -0.230587
v 0.341910 -3.316595 -0.230578
v 0.341910 0.019337 -0.230587
v -0.099222 -3.316593 0.210554
v -0.099222 0.019338 0.210544
v 0.341910 -3.316593 0.210554
v 0.341910 0.019338 0.210544
v -0.293875 -3.705039 -0.110963
v 0.085346 -3.543259 0.022524
v -0.438722 -3.543259 0.105025
v -0.762618 -3.543258 -0.110963
v -0.438722 -3.543260 -0.326952
v 0.085346 -3.543260 -0.244450
v -0.149029 -3.281488 0.105025
v -0.673097 -3.281489 0.022523
v -0.673097 -3.281489 -0.244451
v -0.149029 -3.281489 -0.326952
v 0.174867 -3.281490 -0.110964
v -0.293875 -3.119709 -0.110964
v -0.208737 -3.163418 -0.237918
v -0.516775 -3.163418 -0.189425
v -0.516775 -3.163418 -0.032503
v -0.018356 -3.163419 -0.110964
v -0.208737 -3.163417 0.015990
v 0.066784 -3.258510 -0.237918
v -0.431637 -3.258510 -0.316380
v -0.739675 -3.258510 -0.110964
v -0.431637 -3.258509 0.094452
v 0.066784 -3.258509 0.015990
v -0.293875 -3.412375 -0.364874
v 0.014166 -3.412375 -0.316381
v -0.792297 -3.412374 -0.189425
v -0.601917 -3.412375 -0.316381
v -0.601917 -3.412373 0.094454
v -0.792297 -3.412374 -0.032502
v 0.014166 -3.412373 0.094454
v -0.293875 -3.412373 0.142947
v 0.204546 -3.412374 -0.189425
v 0.204546 -3.412374 -0.032502
v -0.156114 -3.566240 -0.316379
v -0.654535 -3.566239 -0.237917
v -0.379014 -3.661331 -0.237917
v -0.654535 -3.566238 0.015991
v -0.569395 -3.661330 -0.110963
v -0.070976 -3.661331 -0.189424
v 0.151924 -3.566238 -0.110963
v -0.156114 -3.566238 0.094453
v -0.070976 -3.661330 -0.032502
v -0.379014 -3.661330 0.015991
v 0.027210 -4.423069 0.070394
v 0.334166 -4.423069 -0.005095
v 0.249328 -4.173753 0.192536
v 0.556284 -4.173753 -0.127236
v 0.334166 -4.423070 -0.249377
v -0.162503 -4.423068 -0.127236
v -0.247345 -4.173753 0.070394
v 0.027210 -4.423070 -0.324866
v -0.247345 -4.173753 -0.324867
v 0.249328 -4.173756 -0.447009
v 0.608721 -3.770344 -0.005096
v 0.608721 -3.770344 -0.249379
v 0.112049 -3.770342 0.268026
v 0.419009 -3.770343 0.192537
v -0.384623 -3.770344 -0.005096
v -0.194911 -3.770343 0.192537
v -0.194911 -3.770344 -0.447012
v -0.384623 -3.770344 -0.249379
v 0.419009 -3.770344 -0.447012
v 0.112049 -3.770345 -0.522501
v 0.471443 -3.366934 0.070392
v -0.025229 -3.366932 0.192534
v -0.332186 -3.366934 -0.127239
v -0.025229 -3.366935 -0.447011
v 0.471443 -3.366935 -0.324869
v 0.196889 -3.117616 0.070391
v 0.386602 -3.117620 -0.127239
v -0.110068 -3.117617 -0.005099
v -0.110068 -3.117618 -0.249380
v 0.196889 -3.117618 -0.324869
v 0.112049 -3.003021 -0.127240
v 0.579147 -3.427185 -0.127239
v 0.256388 -3.427183 -0.463469
v -0.265841 -3.427183 -0.335039
v -0.265841 -3.427182 0.080562
v 0.256388 -3.427181 0.208992
v 0.489940 -4.113505 -0.335037
v -0.032289 -4.113506 -0.463467
v -0.355048 -4.113503 -0.127237
v -0.032289 -4.113505 0.208994
v 0.489940 -4.113505 0.080563
v 0.112049 -4.537666 -0.127235
vn 0.0000 -0.0000 -1.0000
vn 1.0000 0.0000 0.0000
vn 0.0000 0.0000 1.0000
vn -1.0000 0.0000 -0.0000
vn -0.0000 -1.0000 0.0000
vn 0.0000 1.0000 -0.0000
vn 0.0565 -0.9318 0.3587
vn 0.4721 -0.7988 0.3730
vn -0.1525 -0.9615 0.2287
vn -0.1525 -0.9615 -0.2287
vn 0.0565 -0.9318 -0.3586
vn 0.7451 -0.4871 0.4555
vn 0.0122 -0.2907 0.9568
vn -0.7113 -0.4730 0.5199
vn -0.3280 -0.3377 -0.8822
vn 0.2982 -0.3300 -0.8956
vn 0.5482 -0.1537 0.8221
vn -0.1545 -0.1134 0.9815
vn -0.9752 -0.2211 -0.0000
vn -0.1545 -0.1134 -0.9815
vn 0.5482 -0.1537 -0.8221
vn 0.2267 0.6569 0.7191
vn -0.2688 0.6757 0.6864
vn -0.4721 0.7988 -0.3730
vn 0.0198 0.6083 -0.7934
vn 0.5009 0.8197 -0.2780
vn -0.0198 -0.6083 0.7934
vn 0.1006 -0.7628 0.6388
vn 0.2688 -0.6757 0.6864
vn 0.4721 -0.7988 -0.3730
vn 0.3924 -0.9198 0.0000
vn 0.1924 -0.9813 0.0000
vn -0.5009 -0.8197 0.2780
vn -0.2931 -0.8491 0.4395
vn -0.2267 -0.6569 0.7191
vn -0.2267 -0.6569 -0.7191
vn -0.2931 -0.8491 -0.4395
vn -0.5009 -0.8197 -0.2780
vn 0.2688 -0.6757 -0.6864
vn 0.1006 -0.7628 -0.6388
vn -0.0198 -0.6083 -0.7934
vn 0.9752 0.2211 0.0000
vn 0.9462 -0.3236 -0.0000
vn 0.7451 -0.4871 -0.4555
vn 0.1545 0.1134 0.9815
vn 0.1533 -0.1696 0.9735
vn 0.2982 -0.3300 0.8956
vn -0.5482 0.1537 0.8221
vn -0.5402 -0.2283 0.8100
vn -0.3280 -0.3377 0.8822
vn -0.5482 0.1537 -0.8221
vn -0.5402 -0.2283 -0.8100
vn -0.7113 -0.4730 -0.5199
vn 0.1545 0.1134 -0.9815
vn 0.1533 -0.1696 -0.9735
vn 0.0122 -0.2907 -0.9568
vn 0.3280 0.3377 0.8822
vn 0.5402 0.2283 0.8100
vn 0.7113 0.4730 0.5199
vn -0.2982 0.3300 0.8956
vn -0.1533 0.1696 0.9735
vn -0.0122 0.2907 0.9567
vn -0.7451 0.4871 -0.4555
vn -0.9462 0.3236 0.0000
vn -0.7451 0.4871 0.4555
vn -0.0122 0.2907 -0.9568
vn -0.1533 0.1696 -0.9735
vn -0.2982 0.3300 -0.8956
vn 0.7113 0.4730 -0.5199
vn 0.5402 0.2283 -0.8100
vn 0.3280 0.3377 -0.8822
vn 0.1525 0.9615 0.2287
vn 0.2931 0.8491 0.4395
vn 0.5009 0.8197 0.2780
vn -0.0565 0.9318 0.3587
vn -0.1006 0.7628 0.6388
vn 0.0198 0.6083 0.7934
vn -0.1924 0.9813 -0.0000
vn -0.3924 0.9198 -0.0000
vn -0.4721 0.7988 0.3729
vn -0.0565 0.9318 -0.3587
vn -0.1006 0.7628 -0.6388
vn -0.2688 0.6757 -0.6864
vn 0.1525 0.9615 -0.2287
vn 0.2931 0.8491 -0.4395
vn 0.2267 0.6569 -0.7191
vn 0.3973 0.4375 -0.8067
vn 0.5649 0.6220 -0.5422
vn 0.3613 0.8656 -0.3468
vn -0.4670 0.4462 -0.7634
vn -0.1967 0.5671 -0.7998
vn -0.1326 0.8317 -0.5392
vn -0.7740 0.4978 0.3914
vn -0.7467 0.6652 -0.0000
vn -0.4585 0.8887 -0.0000
vn 0.0354 0.4140 0.9096
vn -0.1967 0.5671 0.7998
vn -0.1326 0.8317 0.5392
vn 0.8129 0.5056 0.2889
vn 0.5649 0.6220 0.5422
vn 0.3613 0.8656 0.3468
vn 0.4928 0.1929 -0.8485
vn 0.7166 0.1151 -0.6879
vn 0.8829 0.2231 -0.4131
vn -0.4530 0.1905 -0.8709
vn -0.2376 0.0999 -0.9662
vn -0.0195 0.1775 -0.9839
vn -0.9073 0.2254 0.3550
vn -0.9917 0.1289 -0.0000
vn -0.9073 0.2254 -0.3550
vn -0.0195 0.1775 0.9839
vn -0.2376 0.1000 0.9662
vn -0.4530 0.1905 0.8709
vn 0.8829 0.2231 0.4131
vn 0.7166 0.1151 0.6879
vn 0.4928 0.1929 0.8485
vn 0.0195 -0.1775 -0.9839
vn 0.2376 -0.1000 -0.9662
vn 0.2383 0.0665 -0.9689
vn -0.8829 -0.2231 -0.4131
vn -0.7166 -0.1151 -0.6879
vn -0.7193 0.0766 -0.6905
vn -0.4928 -0.1928 0.8485
vn -0.7166 -0.1151 0.6879
vn -0.7193 0.0766 0.6905
vn 0.4530 -0.1905 0.8709
vn 0.2376 -0.0999 0.9662
vn 0.2383 0.0665 0.9689
vn 0.9073 -0.2254 -0.3550
vn 0.9917 -0.1289 0.0000
vn 0.9963 0.0859 0.0000
vn -0.0354 -0.4141 -0.9096
vn 0.1967 -0.5671 -0.7998
vn 0.4670 -0.4462 -0.7634
vn -0.8129 -0.5056 -0.2889
vn -0.5649 -0.6220 -0.5422
vn -0.3973 -0.4375 -0.8067
vn -0.3973 -0.4375 0.8067
vn -0.5649 -0.6220 0.5422
vn -0.8129 -0.5056 0.2889
vn 0.4585 -0.8887 0.0000
vn 0.7467 -0.6652 0.0000
vn 0.7740 -0.4978 -0.3914
vn 0.4670 -0.4462 0.7634
vn 0.1967 -0.5671 0.7998
vn -0.0354 -0.4140 0.9096
vn 0.8129 0.5056 -0.2889
vn 0.0354 0.4140 -0.9096
vn -0.7740 0.4978 -0.3914
vn -0.4670 0.4462 0.7634
vn 0.3973 0.4375 0.8067
vn 0.7193 -0.0766 -0.6905
vn -0.2383 -0.0665 -0.9689
vn -0.9963 -0.0859 0.0000
vn -0.2383 -0.0665 0.9689
vn 0.7193 -0.0766 0.6905
vn 0.4530 -0.1905 -0.8709
vn -0.4928 -0.1929 -0.8485
vn -0.8829 -0.2231 0.4131
vn 0.0195 -0.1775 0.9839
vn 0.9073 -0.2254 0.3550
vn 0.1326 -0.8317 -0.5392
vn -0.3613 -0.8656 -0.3468
vn -0.3613 -0.8656 0.3468
vn 0.7740 -0.4978 0.3914
vn 0.1326 -0.8317 0.5392
s 1
f 1//1 2//1 4//1 3//1
f 3//2 4//2 8//2 7//2
f 7//3 8//3 6//3 5//3
f 5//4 6//4 2//4 1//4
f 3//5 7//5 5//5 1//5
f 8//6 4//6 2//6 6//6
f 9//7 49//7 50//7
f 10//8 49//8 47//8
f 9//9 50//9 45//9
f 9//10 45//10 43//10
f 9//11 43//11 46//11
f 10//12 47//12 40//12
f 11//13 48//13 38//13
f 12//14 44//14 36//14
f 13//15 42//15 34//15
f 14//16 41//16 32//16
f 10//17 40//17 37//17
f 11//18 38//18 35//18
f 12//19 36//19 33//19
f 13//20 34//20 31//20
f 14//21 32//21 39//21
f 15//22 30//22 25//22
f 16//23 29//23 23//23
f 17//24 28//24 22//24
f 18//25 27//25 21//25
f 19//26 26//26 24//26
f 50//27 48//27 11//27
f 50//28 49//28 48//28
f 49//29 10//29 48//29
f 47//30 46//30 14//30
f 47//31 49//31 46//31
f 49//32 9//32 46//32
f 45//33 44//33 12//33
f 45//34 50//34 44//34
f 50//35 11//35 44//35
f 43//36 42//36 13//36
f 43//37 45//37 42//37
f 45//38 12//38 42//38
f 46//39 41//39 14//39
f 46//40 43//40 41//40
f 43//41 13//41 41//41
f 40//42 39//42 19//42
f 40//43 47//43 39//43
f 47//44 14//44 39//44
f 38//45 37//45 15//45
f 38//46 48//46 37//46
f 48//47 10//47 37//47
f 36//48 35//48 16//48
f 36//49 44//49 35//49
f 44//50 11//50 35//50
f 34//51 33//51 17//51
f 34//52 42//52 33//52
f 42//53 12//53 33//53
f 32//54 31//54 18//54
f 32//55 41//55 31//55
f 41//56 13//56 31//56
f 37//57 30//57 15//57
f 37//58 40//58 30//58
f 40//59 19//59 30//59
f 35//60 29//60 16//60
f 35//61 38//61 29//61
f 38//62 15//62 29//62
f 33//63 28//63 17//63
f 33//64 36//64 28//64
f 36//65 16//65 28//65
f 31//66 27//66 18//66
f 31//67 34//67 27//67
f 34//68 17//68 27//68
f 39//69 26//69 19//69
f 39//70 32//70 26//70
f 32//71 18//71 26//71
f 25//72 24//72 20//72
f 25//73 30//73 24//73
f 30//74 19//74 24//74
f 23//75 25//75 20//75
f 23//76 29//76 25//76
f 29//77 15//77 25//77
f 22//78 23//78 20//78
f 22//79 28//79 23//79
f 28//80 16//80 23//80
f 21//81 22//81 20//81
f 21//82 27//82 22//82
f 27//83 17//83 22//83
f 24//84 21//84 20//84
f 24//85 26//85 21//85
f 26//86 18//86 21//86
f 75//87 83//87 80//87
f 77//88 75//88 80//88
f 77//89 80//89 81//89
f 74//90 84//90 79//90
f 80//91 74//91 79//91
f 80//92 79//92 81//92
f 73//93 85//93 78//93
f 79//94 73//94 78//94
f 79//95 78//95 81//95
f 72//96 86//96 76//96
f 78//97 72//97 76//97
f 78//98 76//98 81//98
f 71//99 82//99 77//99
f 76//100 71//100 77//100
f 76//101 77//101 81//101
f 69//102 83//102 75//102
f 62//103 69//103 75//103
f 62//104 75//104 82//104
f 67//105 84//105 74//105
f 70//106 67//106 74//106
f 70//107 74//107 83//107
f 65//108 85//108 73//108
f 68//109 65//109 73//109
f 68//110 73//110 84//110
f 63//111 86//111 72//111
f 66//112 63//112 72//112
f 66//113 72//113 85//113
f 61//114 82//114 71//114
f 64//115 61//115 71//115
f 64//116 71//116 86//116
f 60//117 88//117 70//117
f 69//118 60//118 70//118
f 69//119 70//119 83//119
f 59//120 89//120 68//120
f 67//121 59//121 68//121
f 67//122 68//122 84//122
f 57//123 90//123 66//123
f 65//124 57//124 66//124
f 65//125 66//125 85//125
f 53//126 91//126 64//126
f 63//127 53//127 64//127
f 63//128 64//128 86//128
f 54//129 87//129 62//129
f 61//130 54//130 62//130
f 61//131 62//131 82//131
f 58//132 88//132 60//132
f 55//133 58//133 60//133
f 55//134 60//134 87//134
f 56//135 89//135 59//135
f 58//136 56//136 59//136
f 58//137 59//137 88//137
f 51//138 90//138 57//138
f 56//139 51//139 57//139
f 56//140 57//140 89//140
f 52//141 92//141 55//141
f 54//142 52//142 55//142
f 54//143 55//143 87//143
f 52//144 91//144 53//144
f 51//145 52//145 53//145
f 51//146 53//146 90//146
f 82//147 75//147 77//147
f 83//148 74//148 80//148
f 84//149 73//149 79//149
f 85//150 72//150 78//150
f 86//151 71//151 76//151
f 87//152 69//152 62//152
f 88//153 67//153 70//153
f 89//154 65//154 68//154
f 90//155 63//155 66//155
f 91//156 61//156 64//156
f 87//157 60//157 69//157
f 88//158 59//158 67//158
f 89//159 57//159 65//159
f 90//160 53//160 63//160
f 91//161 54//161 61//161
f 92//162 58//162 55//162
f 92//163 56//163 58//163
f 92//164 51//164 56//164
f 91//165 52//165 54//165
f 92//166 52//166 51//166
