# Blender v2.79 (sub 0) OBJ File: ''
# www.blender.org
o Cube_Cube.003
v -0.203232 -1.725595 0.820763
v -0.203232 -1.625595 0.920763
v -0.303232 -1.625595 0.820763
v -0.203232 -1.696306 0.891474
v -0.260967 -1.683330 0.878498
v -0.273942 -1.625595 0.891474
v -0.273942 -1.696306 0.820763
v -0.203232 2.103741 0.920762
v -0.203232 2.203741 0.820762
v -0.303232 2.103741 0.820762
v -0.203232 2.174452 0.891473
v -0.260967 2.161476 0.878497
v -0.273942 2.174452 0.820762
v -0.273942 2.103741 0.891473
v -0.203232 -1.725595 -0.802377
v -0.303232 -1.625595 -0.802377
v -0.203232 -1.625595 -0.902377
v -0.273942 -1.696306 -0.802377
v -0.260967 -1.683331 -0.860112
v -0.273942 -1.625595 -0.873088
v -0.203232 -1.696306 -0.873088
v -0.203232 2.203741 -0.802378
v -0.203232 2.103741 -0.902378
v -0.303232 2.103741 -0.802378
v -0.203232 2.174451 -0.873088
v -0.260967 2.161476 -0.860113
v -0.273942 2.103741 -0.873088
v -0.273942 2.174451 -0.802378
v 0.208915 -1.725595 0.820763
v 0.308915 -1.625595 0.820763
v 0.208915 -1.625595 0.920763
v 0.279625 -1.696306 0.820763
v 0.266650 -1.683330 0.878498
v 0.279625 -1.625595 0.891474
v 0.208915 -1.696306 0.891474
v 0.208915 2.203741 0.820762
v 0.208915 2.103741 0.920762
v 0.308915 2.103741 0.820762
v 0.208915 2.174452 0.891473
v 0.266650 2.161476 0.878497
v 0.279625 2.103741 0.891473
v 0.279625 2.174452 0.820762
v 0.208915 -1.725595 -0.802377
v 0.208915 -1.625595 -0.902377
v 0.308915 -1.625595 -0.802377
v 0.208915 -1.696306 -0.873088
v 0.266650 -1.683331 -0.860112
v 0.279625 -1.625595 -0.873088
v 0.279625 -1.696306 -0.802377
v 0.208915 2.203741 -0.802378
v 0.308915 2.103741 -0.802378
v 0.208915 2.103741 -0.902378
v 0.279625 2.174451 -0.802378
v 0.266650 2.161476 -0.860113
v 0.279625 2.103741 -0.873088
v 0.208915 2.174451 -0.873088
vn 0.1794 -0.1794 0.9673
vn 0.1794 0.1794 0.9673
vn -0.1794 0.1794 0.9673
vn -0.1794 -0.1794 0.9673
vn 0.9673 -0.1794 -0.1794
vn 0.9673 0.1794 -0.1794
vn 0.9673 0.1794 0.1794
vn 0.9673 -0.1794 0.1794
vn 0.1794 0.9673 -0.1794
vn -0.1794 0.9673 -0.1794
vn -0.1794 0.9673 0.1794
vn 0.1794 0.9673 0.1794
vn -0.9673 -0.1794 0.1794
vn -0.9673 0.1794 0.1794
vn -0.9673 0.1794 -0.1794
vn -0.9673 -0.1794 -0.1794
vn -0.1794 -0.1794 -0.9673
vn -0.1794 0.1794 -0.9673
vn 0.1794 0.1794 -0.9673
vn 0.1794 -0.1794 -0.9673
vn -0.1794 -0.9673 0.1794
vn -0.1726 -0.6965 0.6965
vn -0.5774 -0.5774 0.5774
vn -0.6965 -0.6965 0.1726
vn -0.6965 -0.1726 0.6965
vn -0.1726 0.6965 0.6965
vn -0.5774 0.5774 0.5774
vn -0.6965 0.1726 0.6965
vn -0.6965 0.6965 0.1726
vn -0.1794 -0.9673 -0.1794
vn -0.6965 -0.6965 -0.1726
vn -0.5773 -0.5774 -0.5773
vn -0.1726 -0.6965 -0.6965
vn -0.6965 -0.1726 -0.6965
vn -0.1726 0.6965 -0.6965
vn -0.5774 0.5773 -0.5774
vn -0.6965 0.6965 -0.1726
vn -0.6965 0.1726 -0.6965
vn 0.1794 -0.9673 0.1794
vn 0.6965 -0.6965 0.1726
vn 0.5773 -0.5774 0.5774
vn 0.1726 -0.6965 0.6965
vn 0.6965 -0.1726 0.6965
vn 0.1726 0.6965 0.6965
vn 0.5774 0.5774 0.5774
vn 0.6965 0.6965 0.1726
vn 0.6965 0.1726 0.6965
vn 0.1794 -0.9673 -0.1794
vn 0.1726 -0.6965 -0.6965
vn 0.5774 -0.5774 -0.5773
vn 0.6965 -0.6965 -0.1726
vn 0.6965 -0.1726 -0.6965
vn 0.6965 0.6965 -0.1726
vn 0.5774 0.5774 -0.5774
vn 0.1726 0.6965 -0.6965
vn 0.6965 0.1726 -0.6965
s 1
f 31//1 37//2 8//3 2//4
f 45//5 51//6 38//7 30//8
f 50//9 22//10 9//11 36//12
f 3//13 10//14 24//15 16//16
f 17//17 23//18 52//19 44//20
f 1//21 4//22 5//23 7//24
f 2//4 6//25 5//23 4//22
f 3//13 7//24 5//23 6//25
f 8//3 11//26 12//27 14//28
f 9//11 13//29 12//27 11//26
f 10//14 14//28 12//27 13//29
f 15//30 18//31 19//32 21//33
f 16//16 20//34 19//32 18//31
f 17//17 21//33 19//32 20//34
f 22//10 25//35 26//36 28//37
f 23//18 27//38 26//36 25//35
f 24//15 28//37 26//36 27//38
f 29//39 32//40 33//41 35//42
f 30//8 34//43 33//41 32//40
f 31//1 35//42 33//41 34//43
f 36//12 39//44 40//45 42//46
f 37//2 41//47 40//45 39//44
f 38//7 42//46 40//45 41//47
f 43//48 46//49 47//50 49//51
f 44//20 48//52 47//50 46//49
f 45//5 49//51 47//50 48//52
f 50//9 53//53 54//54 56//55
f 51//6 55//56 54//54 53//53
f 52//19 56//55 54//54 55//56
f 15//30 1//21 7//24 18//31
f 18//31 7//24 3//13 16//16
f 2//4 8//3 14//28 6//25
f 6//25 14//28 10//14 3//13
f 9//11 22//10 28//37 13//29
f 13//29 28//37 24//15 10//14
f 23//18 17//17 20//34 27//38
f 27//38 20//34 16//16 24//15
f 43//48 15//30 21//33 46//49
f 46//49 21//33 17//17 44//20
f 22//10 50//9 56//55 25//35
f 25//35 56//55 52//19 23//18
f 51//6 45//5 48//52 55//56
f 55//56 48//52 44//20 52//19
f 29//39 43//48 49//51 32//40
f 32//40 49//51 45//5 30//8
f 50//9 36//12 42//46 53//53
f 53//53 42//46 38//7 51//6
f 37//2 31//1 34//43 41//47
f 41//47 34//43 30//8 38//7
f 1//21 29//39 35//42 4//22
f 4//22 35//42 31//1 2//4
f 36//12 9//11 11//26 39//44
f 39//44 11//26 8//3 37//2
f 15//30 43//48 29//39 1//21
