# Blender v2.79 (sub 0) OBJ File: ''
# www.blender.org
o Cylinder_Cylinder.001
v 0.000000 -0.760621 -0.689607
v 0.000000 0.389345 -0.689607
v 0.090012 -0.760621 -0.683708
v 0.090012 0.389345 -0.683708
v 0.178484 -0.760621 -0.666109
v 0.178484 0.389345 -0.666110
v 0.263901 -0.760621 -0.637114
v 0.263901 0.389345 -0.637114
v 0.344804 -0.760621 -0.597217
v 0.344804 0.389345 -0.597218
v 0.419806 -0.760621 -0.547102
v 0.419806 0.389346 -0.547102
v 0.487626 -0.760621 -0.487626
v 0.487626 0.389346 -0.487626
v 0.547102 -0.760621 -0.419806
v 0.547102 0.389346 -0.419807
v 0.597218 -0.760621 -0.344804
v 0.597218 0.389346 -0.344804
v 0.637114 -0.760621 -0.263901
v 0.637114 0.389346 -0.263902
v 0.666110 -0.760621 -0.178484
v 0.666110 0.389346 -0.178484
v 0.683708 -0.760621 -0.090012
v 0.683708 0.389346 -0.090012
v 0.689607 -0.760621 -0.000000
v 0.689607 0.389346 -0.000000
v 0.683708 -0.760621 0.090012
v 0.683708 0.389346 0.090011
v 0.666110 -0.760621 0.178483
v 0.666110 0.389346 0.178483
v 0.637114 -0.760621 0.263901
v 0.637114 0.389346 0.263901
v 0.597218 -0.760621 0.344804
v 0.597218 0.389346 0.344803
v 0.547102 -0.760621 0.419806
v 0.547102 0.389346 0.419806
v 0.487626 -0.760621 0.487626
v 0.487626 0.389346 0.487626
v 0.419807 -0.760621 0.547102
v 0.419807 0.389346 0.547102
v 0.344804 -0.760621 0.597217
v 0.344804 0.389346 0.597217
v 0.263902 -0.760621 0.637114
v 0.263902 0.389346 0.637114
v 0.178484 -0.760621 0.666110
v 0.178484 0.389346 0.666109
v 0.090012 -0.760621 0.683708
v 0.090012 0.389346 0.683707
v 0.000000 -0.760621 0.689607
v 0.000000 0.389346 0.689607
v -0.090011 -0.760621 0.683708
v -0.090011 0.389346 0.683707
v -0.178483 -0.760621 0.666110
v -0.178483 0.389346 0.666109
v -0.263901 -0.760621 0.637114
v -0.263901 0.389346 0.637114
v -0.344803 -0.760621 0.597218
v -0.344803 0.389346 0.597217
v -0.419806 -0.760621 0.547103
v -0.419806 0.389346 0.547102
v -0.487626 -0.760621 0.487626
v -0.487626 0.389346 0.487626
v -0.547102 -0.760621 0.419807
v -0.547102 0.389346 0.419806
v -0.597217 -0.760621 0.344804
v -0.597217 0.389346 0.344804
v -0.637114 -0.760621 0.263901
v -0.637114 0.389346 0.263901
v -0.666109 -0.760621 0.178483
v -0.666109 0.389346 0.178483
v -0.683707 -0.760621 0.090012
v -0.683707 0.389346 0.090011
v -0.689607 -0.760621 -0.000000
v -0.689607 0.389346 -0.000001
v -0.683707 -0.760621 -0.090012
v -0.683707 0.389346 -0.090012
v -0.666109 -0.760621 -0.178484
v -0.666109 0.389346 -0.178484
v -0.637114 -0.760621 -0.263902
v -0.637114 0.389346 -0.263902
v -0.597217 -0.760621 -0.344804
v -0.597217 0.389346 -0.344805
v -0.547101 -0.760621 -0.419807
v -0.547101 0.389346 -0.419807
v -0.487625 -0.760621 -0.487627
v -0.487625 0.389346 -0.487627
v -0.419805 -0.760621 -0.547103
v -0.419805 0.389346 -0.547103
v -0.344802 -0.760621 -0.597218
v -0.344802 0.389345 -0.597218
v -0.263900 -0.760621 -0.637115
v -0.263900 0.389345 -0.637115
v -0.178482 -0.760621 -0.666110
v -0.178482 0.389345 -0.666110
v -0.090010 -0.760621 -0.683708
v -0.090010 0.389345 -0.683708
v 0.000000 1.749824 -0.000001
v 0.000000 -0.947340 -0.547582
v 0.071474 -0.947340 -0.542898
v 0.141725 -0.947340 -0.528924
v 0.209551 -0.947340 -0.505900
v 0.273791 -0.947340 -0.474220
v 0.333347 -0.947340 -0.434426
v 0.387199 -0.947340 -0.387199
v 0.434426 -0.947340 -0.333347
v 0.474220 -0.947340 -0.273791
v 0.505900 -0.947340 -0.209551
v 0.528924 -0.947340 -0.141725
v 0.542898 -0.947340 -0.071474
v 0.547582 -0.947340 -0.000000
v 0.542898 -0.947340 0.071474
v 0.528924 -0.947340 0.141725
v 0.505900 -0.947340 0.209551
v 0.474220 -0.947340 0.273791
v 0.434426 -0.947340 0.333347
v 0.387199 -0.947340 0.387199
v 0.333347 -0.947340 0.434426
v 0.273791 -0.947340 0.474220
v 0.209551 -0.947340 0.505900
v 0.141725 -0.947340 0.528924
v 0.071474 -0.947340 0.542898
v 0.000000 -0.947340 0.547582
v -0.071473 -0.947340 0.542898
v -0.141724 -0.947340 0.528924
v -0.209550 -0.947340 0.505900
v -0.273791 -0.947340 0.474220
v -0.333347 -0.947340 0.434426
v -0.387199 -0.947340 0.387199
v -0.434426 -0.947340 0.333347
v -0.474220 -0.947340 0.273791
v -0.505900 -0.947340 0.209551
v -0.528924 -0.947340 0.141725
v -0.542897 -0.947340 0.071474
v -0.547582 -0.947340 -0.000000
v -0.542897 -0.947340 -0.071474
v -0.528923 -0.947340 -0.141725
v -0.505900 -0.947340 -0.209551
v -0.474220 -0.947340 -0.273792
v -0.434425 -0.947340 -0.333348
v -0.387198 -0.947340 -0.387200
v -0.333346 -0.947340 -0.434427
v -0.273790 -0.947340 -0.474221
v -0.209549 -0.947340 -0.505901
v -0.141723 -0.947340 -0.528924
v -0.071472 -0.947340 -0.542898
v -0.470329 0.470371 0.470329
v -0.527695 0.470371 0.404915
v -0.614514 0.470371 -0.254541
v -0.576032 0.470371 -0.332574
v 0.576033 0.470371 -0.332573
v 0.614515 0.470371 -0.254541
v 0.527696 0.470371 0.404915
v 0.470329 0.470371 0.470329
v -0.172152 0.470371 0.642481
v -0.254540 0.470371 0.614514
v -0.659455 0.470371 0.086819
v -0.665145 0.470371 -0.000001
v -0.332571 0.470371 -0.576034
v -0.254539 0.470371 -0.614515
v 0.332573 0.470371 -0.576033
v 0.404915 0.470371 -0.527696
v 0.659455 0.470371 0.086819
v 0.642482 0.470371 0.172152
v 0.172153 0.470371 0.642481
v 0.086819 0.470371 0.659455
v 0.000000 0.470371 -0.665146
v 0.086819 0.470371 -0.659455
v -0.576033 0.470371 0.332573
v -0.527695 0.470371 -0.404916
v 0.642481 0.470371 -0.172153
v 0.404915 0.470371 0.527695
v -0.332572 0.470371 0.576033
v -0.659455 0.470371 -0.086820
v -0.172151 0.470371 -0.642482
v 0.470329 0.470371 -0.470329
v 0.614515 0.470371 0.254540
v 0.000000 0.470371 0.665145
v -0.614514 0.470371 0.254540
v -0.470328 0.470371 -0.470330
v 0.172153 0.470371 -0.642481
v 0.659455 0.470371 -0.086819
v 0.332573 0.470371 0.576033
v -0.404915 0.470371 0.527696
v -0.642481 0.470371 -0.172153
v -0.086817 0.470371 -0.659456
v 0.527696 0.470371 -0.404915
v 0.576033 0.470371 0.332572
v -0.086819 0.470371 0.659455
v -0.642481 0.470371 0.172152
v -0.404914 0.470371 -0.527696
v 0.254540 0.470371 -0.614515
v 0.665146 0.470371 -0.000000
v 0.254541 0.470371 0.614514
v 0.597257 -0.853980 -0.247392
v 0.559856 -0.853980 -0.323233
v 0.457121 -0.853980 0.457120
v 0.512876 -0.853980 0.393543
v -0.247391 -0.853980 0.597257
v -0.167317 -0.853980 0.624438
v -0.646466 -0.853980 -0.000000
v -0.640935 -0.853980 0.084381
v -0.247390 -0.853981 -0.597257
v -0.323232 -0.853981 -0.559857
v 0.393544 -0.853980 -0.512876
v 0.323233 -0.853981 -0.559856
v 0.624438 -0.853980 0.167318
v 0.640935 -0.853980 0.084381
v 0.084381 -0.853980 0.640935
v 0.167318 -0.853980 0.624438
v 0.084381 -0.853981 -0.640935
v 0.000000 -0.853981 -0.646466
v -0.559856 -0.853980 0.323233
v -0.512876 -0.853980 0.393544
v -0.512875 -0.853980 -0.393544
v -0.559855 -0.853980 -0.323234
v 0.624438 -0.853980 -0.167318
v 0.393544 -0.853980 0.512876
v -0.323233 -0.853980 0.559856
v -0.640935 -0.853980 -0.084381
v -0.167316 -0.853981 -0.624439
v 0.457121 -0.853980 -0.457120
v 0.597257 -0.853980 0.247392
v 0.000000 -0.853980 0.646466
v -0.597256 -0.853980 0.247392
v -0.457119 -0.853980 -0.457121
v 0.167318 -0.853981 -0.624438
v 0.640935 -0.853980 -0.084381
v 0.323233 -0.853980 0.559856
v -0.393543 -0.853980 0.512876
v -0.624438 -0.853980 -0.167318
v -0.084379 -0.853981 -0.640936
v 0.512876 -0.853980 -0.393544
v 0.559856 -0.853980 0.323233
v -0.084380 -0.853980 0.640935
v -0.624438 -0.853980 0.167318
v -0.393542 -0.853980 -0.512877
v 0.247392 -0.853981 -0.597257
v 0.646466 -0.853980 -0.000000
v 0.247392 -0.853980 0.597257
v -0.457120 -0.853980 0.457121
v -0.597256 -0.853980 -0.247392
vn 0.0000 -0.2129 -0.9771
vn 0.0000 0.1452 -0.9894
vn 0.1291 0.1452 -0.9809
vn 0.1275 -0.2129 -0.9687
vn 0.2561 0.1452 -0.9557
vn 0.2529 -0.2129 -0.9438
vn 0.3786 0.1452 -0.9141
vn 0.3739 -0.2129 -0.9027
vn 0.4947 0.1452 -0.8568
vn 0.4885 -0.2129 -0.8462
vn 0.6023 0.1452 -0.7849
vn 0.5948 -0.2129 -0.7752
vn 0.6996 0.1452 -0.6996
vn 0.6909 -0.2129 -0.6909
vn 0.7849 0.1452 -0.6023
vn 0.7752 -0.2129 -0.5948
vn 0.8568 0.1452 -0.4947
vn 0.8462 -0.2129 -0.4885
vn 0.9141 0.1452 -0.3786
vn 0.9027 -0.2129 -0.3739
vn 0.9557 0.1452 -0.2561
vn 0.9438 -0.2129 -0.2529
vn 0.9809 0.1452 -0.1291
vn 0.9687 -0.2129 -0.1275
vn 0.9894 0.1452 -0.0000
vn 0.9771 -0.2129 -0.0000
vn 0.9809 0.1452 0.1291
vn 0.9687 -0.2129 0.1275
vn 0.9557 0.1452 0.2561
vn 0.9438 -0.2129 0.2529
vn 0.9141 0.1452 0.3786
vn 0.9027 -0.2129 0.3739
vn 0.8568 0.1452 0.4947
vn 0.8462 -0.2129 0.4885
vn 0.7849 0.1452 0.6023
vn 0.7752 -0.2129 0.5948
vn 0.6996 0.1452 0.6996
vn 0.6909 -0.2129 0.6909
vn 0.6023 0.1452 0.7849
vn 0.5948 -0.2129 0.7752
vn 0.4947 0.1452 0.8568
vn 0.4885 -0.2129 0.8462
vn 0.3786 0.1452 0.9141
vn 0.3739 -0.2129 0.9027
vn 0.2561 0.1452 0.9557
vn 0.2529 -0.2129 0.9438
vn 0.1291 0.1452 0.9809
vn 0.1275 -0.2129 0.9687
vn 0.0000 0.1452 0.9894
vn 0.0000 -0.2129 0.9771
vn -0.1291 0.1452 0.9809
vn -0.1275 -0.2129 0.9687
vn -0.2561 0.1452 0.9557
vn -0.2529 -0.2129 0.9438
vn -0.3786 0.1452 0.9141
vn -0.3739 -0.2129 0.9027
vn -0.4947 0.1452 0.8568
vn -0.4885 -0.2129 0.8462
vn -0.6023 0.1452 0.7849
vn -0.5948 -0.2129 0.7752
vn -0.6996 0.1452 0.6996
vn -0.6909 -0.2129 0.6909
vn -0.7849 0.1452 0.6023
vn -0.7752 -0.2129 0.5948
vn -0.8568 0.1452 0.4947
vn -0.8462 -0.2129 0.4885
vn -0.9141 0.1452 0.3786
vn -0.9027 -0.2129 0.3739
vn -0.9557 0.1452 0.2561
vn -0.9438 -0.2129 0.2529
vn -0.9809 0.1452 0.1291
vn -0.9687 -0.2129 0.1275
vn -0.9894 0.1452 -0.0000
vn -0.9771 -0.2129 -0.0000
vn -0.9809 0.1452 -0.1291
vn -0.9687 -0.2129 -0.1275
vn -0.9557 0.1452 -0.2561
vn -0.9438 -0.2129 -0.2529
vn -0.9141 0.1452 -0.3786
vn -0.9027 -0.2129 -0.3739
vn -0.8568 0.1452 -0.4947
vn -0.8462 -0.2129 -0.4885
vn -0.7849 0.1452 -0.6023
vn -0.7752 -0.2129 -0.5948
vn -0.6996 0.1452 -0.6996
vn -0.6909 -0.2129 -0.6909
vn -0.6023 0.1452 -0.7849
vn -0.5948 -0.2129 -0.7752
vn -0.4947 0.1452 -0.8568
vn -0.4885 -0.2129 -0.8462
vn -0.3786 0.1452 -0.9141
vn -0.3739 -0.2129 -0.9027
vn -0.2561 0.1452 -0.9557
vn -0.2529 -0.2129 -0.9438
vn -0.7353 0.3754 0.5642
vn -0.6554 0.3754 0.6554
vn -0.0000 1.0000 0.0000
vn -0.1291 0.1452 -0.9809
vn -0.1275 -0.2129 -0.9687
vn 0.7054 -0.5802 -0.4072
vn 0.7525 -0.5802 -0.3117
vn 0.3534 -0.9239 -0.1464
vn 0.3313 -0.9239 -0.1913
vn -0.8027 0.3754 -0.4634
vn -0.8563 0.3754 -0.3547
vn 0.8563 0.3754 -0.3547
vn 0.8027 0.3754 -0.4634
vn 0.6554 0.3754 0.6554
vn 0.7353 0.3754 0.5642
vn -0.3547 0.3754 0.8563
vn -0.2399 0.3754 0.8953
vn -0.9269 0.3754 -0.0000
vn -0.9189 0.3754 0.1210
vn -0.3547 0.3754 -0.8563
vn -0.4634 0.3754 -0.8027
vn 0.5642 0.3754 -0.7353
vn 0.4634 0.3754 -0.8027
vn 0.8953 0.3754 0.2399
vn 0.9189 0.3754 0.1210
vn 0.1210 0.3754 0.9189
vn 0.2399 0.3754 0.8953
vn 0.1210 0.3754 -0.9189
vn 0.0000 0.3754 -0.9269
vn -0.8027 0.3754 0.4634
vn -0.7353 0.3754 -0.5642
vn 0.8953 0.3754 -0.2399
vn 0.5642 0.3754 0.7353
vn -0.4634 0.3754 0.8027
vn -0.9189 0.3754 -0.1210
vn -0.2399 0.3754 -0.8953
vn 0.6554 0.3754 -0.6554
vn 0.8563 0.3754 0.3547
vn 0.0000 0.3754 0.9269
vn -0.8563 0.3754 0.3547
vn -0.6554 0.3754 -0.6554
vn 0.2399 0.3754 -0.8953
vn 0.9189 0.3754 -0.1210
vn 0.4634 0.3754 0.8027
vn -0.5642 0.3754 0.7353
vn -0.8953 0.3754 -0.2399
vn -0.1210 0.3754 -0.9189
vn 0.7353 0.3754 -0.5642
vn 0.8027 0.3754 0.4634
vn -0.1210 0.3754 0.9189
vn -0.8953 0.3754 0.2399
vn -0.5642 0.3754 -0.7353
vn 0.3547 0.3754 -0.8563
vn 0.9269 0.3754 -0.0000
vn 0.3547 0.3754 0.8563
vn 0.0000 -0.9239 -0.3825
vn 0.0499 -0.9239 -0.3792
vn 0.0990 -0.9239 -0.3695
vn 0.1464 -0.9239 -0.3534
vn 0.1913 -0.9239 -0.3313
vn 0.2329 -0.9239 -0.3035
vn 0.2705 -0.9239 -0.2705
vn 0.3035 -0.9239 -0.2329
vn 0.3695 -0.9239 -0.0990
vn 0.3792 -0.9239 -0.0499
vn 0.3825 -0.9239 -0.0000
vn 0.3792 -0.9239 0.0499
vn 0.3695 -0.9239 0.0990
vn 0.3534 -0.9239 0.1464
vn 0.3313 -0.9239 0.1913
vn 0.3035 -0.9239 0.2329
vn 0.2705 -0.9239 0.2705
vn 0.2329 -0.9239 0.3035
vn 0.1913 -0.9239 0.3313
vn 0.1464 -0.9239 0.3534
vn 0.0990 -0.9239 0.3695
vn 0.0499 -0.9239 0.3792
vn 0.0000 -0.9239 0.3825
vn -0.0499 -0.9239 0.3792
vn -0.0990 -0.9239 0.3695
vn -0.1464 -0.9239 0.3534
vn -0.1913 -0.9239 0.3313
vn -0.2329 -0.9239 0.3035
vn -0.2705 -0.9239 0.2705
vn -0.3035 -0.9239 0.2329
vn -0.3313 -0.9239 0.1913
vn -0.3534 -0.9239 0.1464
vn -0.3695 -0.9239 0.0990
vn -0.3792 -0.9239 0.0499
vn -0.3825 -0.9239 0.0000
vn -0.3792 -0.9239 -0.0499
vn -0.3695 -0.9239 -0.0990
vn -0.3534 -0.9239 -0.1464
vn -0.3313 -0.9239 -0.1913
vn -0.3035 -0.9239 -0.2329
vn -0.2705 -0.9239 -0.2705
vn -0.2329 -0.9239 -0.3035
vn -0.1913 -0.9239 -0.3313
vn -0.1464 -0.9239 -0.3534
vn -0.0990 -0.9239 -0.3695
vn -0.0499 -0.9239 -0.3792
vn 0.6462 -0.5802 0.4958
vn 0.5759 -0.5802 0.5759
vn -0.2108 -0.5802 0.7867
vn -0.3117 -0.5802 0.7525
vn -0.8075 -0.5802 0.1063
vn -0.8145 -0.5802 -0.0000
vn -0.4072 -0.5802 -0.7054
vn -0.3117 -0.5802 -0.7525
vn 0.4072 -0.5802 -0.7054
vn 0.4958 -0.5802 -0.6462
vn 0.8075 -0.5802 0.1063
vn 0.7867 -0.5802 0.2108
vn 0.2108 -0.5802 0.7867
vn 0.1063 -0.5802 0.8075
vn 0.0000 -0.5802 -0.8145
vn 0.1063 -0.5802 -0.8075
vn -0.6462 -0.5802 0.4958
vn -0.7054 -0.5802 0.4072
vn -0.7054 -0.5802 -0.4073
vn -0.6462 -0.5802 -0.4958
vn 0.7867 -0.5802 -0.2108
vn 0.4958 -0.5802 0.6462
vn -0.4072 -0.5802 0.7054
vn -0.8075 -0.5802 -0.1063
vn -0.2108 -0.5802 -0.7867
vn 0.5759 -0.5802 -0.5759
vn 0.7525 -0.5802 0.3117
vn 0.0000 -0.5802 0.8145
vn -0.7525 -0.5802 0.3117
vn -0.5759 -0.5802 -0.5759
vn 0.2108 -0.5802 -0.7867
vn 0.8075 -0.5802 -0.1063
vn 0.4072 -0.5802 0.7054
vn -0.4958 -0.5802 0.6462
vn -0.7867 -0.5802 -0.2108
vn -0.1063 -0.5802 -0.8075
vn 0.6462 -0.5802 -0.4958
vn 0.7054 -0.5802 0.4072
vn -0.1063 -0.5802 0.8075
vn -0.7867 -0.5802 0.2108
vn -0.4958 -0.5802 -0.6462
vn 0.3117 -0.5802 -0.7525
vn 0.8145 -0.5802 -0.0000
vn 0.3117 -0.5802 0.7525
vn -0.5759 -0.5802 0.5759
vn -0.7525 -0.5802 -0.3117
s 1
f 1//1 2//2 4//3 3//4
f 3//4 4//3 6//5 5//6
f 5//6 6//5 8//7 7//8
f 7//8 8//7 10//9 9//10
f 9//10 10//9 12//11 11//12
f 11//12 12//11 14//13 13//14
f 13//14 14//13 16//15 15//16
f 15//16 16//15 18//17 17//18
f 17//18 18//17 20//19 19//20
f 19//20 20//19 22//21 21//22
f 21//22 22//21 24//23 23//24
f 23//24 24//23 26//25 25//26
f 25//26 26//25 28//27 27//28
f 27//28 28//27 30//29 29//30
f 29//30 30//29 32//31 31//32
f 31//32 32//31 34//33 33//34
f 33//34 34//33 36//35 35//36
f 35//36 36//35 38//37 37//38
f 37//38 38//37 40//39 39//40
f 39//40 40//39 42//41 41//42
f 41//42 42//41 44//43 43//44
f 43//44 44//43 46//45 45//46
f 45//46 46//45 48//47 47//48
f 47//48 48//47 50//49 49//50
f 49//50 50//49 52//51 51//52
f 51//52 52//51 54//53 53//54
f 53//54 54//53 56//55 55//56
f 55//56 56//55 58//57 57//58
f 57//58 58//57 60//59 59//60
f 59//60 60//59 62//61 61//62
f 61//62 62//61 64//63 63//64
f 63//64 64//63 66//65 65//66
f 65//66 66//65 68//67 67//68
f 67//68 68//67 70//69 69//70
f 69//70 70//69 72//71 71//72
f 71//72 72//71 74//73 73//74
f 73//74 74//73 76//75 75//76
f 75//76 76//75 78//77 77//78
f 77//78 78//77 80//79 79//80
f 79//80 80//79 82//81 81//82
f 81//82 82//81 84//83 83//84
f 83//84 84//83 86//85 85//86
f 85//86 86//85 88//87 87//88
f 87//88 88//87 90//89 89//90
f 89//90 90//89 92//91 91//92
f 91//92 92//91 94//93 93//94
f 147//95 146//96 97//97
f 93//94 94//93 96//98 95//99
f 95//99 96//98 2//2 1//1
f 195//100 194//101 107//102 106//103
f 149//104 148//105 97//97
f 151//106 150//107 97//97
f 153//108 152//109 97//97
f 155//110 154//111 97//97
f 157//112 156//113 97//97
f 159//114 158//115 97//97
f 161//116 160//117 97//97
f 163//118 162//119 97//97
f 165//120 164//121 97//97
f 167//122 166//123 97//97
f 168//124 147//95 97//97
f 169//125 149//104 97//97
f 170//126 151//106 97//97
f 171//127 153//108 97//97
f 172//128 155//110 97//97
f 173//129 157//112 97//97
f 174//130 159//114 97//97
f 175//131 161//116 97//97
f 176//132 163//118 97//97
f 177//133 165//120 97//97
f 178//134 168//124 97//97
f 179//135 169//125 97//97
f 180//136 167//122 97//97
f 181//137 170//126 97//97
f 182//138 171//127 97//97
f 183//139 172//128 97//97
f 184//140 173//129 97//97
f 185//141 174//130 97//97
f 186//142 175//131 97//97
f 187//143 176//132 97//97
f 188//144 177//133 97//97
f 189//145 178//134 97//97
f 190//146 179//135 97//97
f 191//147 180//136 97//97
f 192//148 181//137 97//97
f 193//149 182//138 97//97
f 146//96 183//139 97//97
f 148//105 184//140 97//97
f 166//123 185//141 97//97
f 150//107 186//142 97//97
f 152//109 187//143 97//97
f 154//111 188//144 97//97
f 156//113 189//145 97//97
f 158//115 190//146 97//97
f 160//117 191//147 97//97
f 162//119 192//148 97//97
f 164//121 193//149 97//97
f 98//150 99//151 100//152 101//153 102//154 103//155 104//156 105//157 106//103 107//102 108//158 109//159 110//160 111//161 112//162 113//163 114//164 115//165 116//166 117//167 118//168 119//169 120//170 121//171 122//172 123//173 124//174 125//175 126//176 127//177 128//178 129//179 130//180 131//181 132//182 133//183 134//184 135//185 136//186 137//187 138//188 139//189 140//190 141//191 142//192 143//193 144//194 145//195
f 197//196 196//197 116//166 115//165
f 199//198 198//199 125//175 124//174
f 201//200 200//201 134//184 133//183
f 203//202 202//203 143//193 142//192
f 205//204 204//205 103//155 102//154
f 207//206 206//207 112//162 111//161
f 209//208 208//209 121//171 120//170
f 211//210 210//211 99//151 98//150
f 213//212 212//213 130//180 129//179
f 215//214 214//215 139//189 138//188
f 194//101 216//216 108//158 107//102
f 196//197 217//217 117//167 116//166
f 198//199 218//218 126//176 125//175
f 200//201 219//219 135//185 134//184
f 202//203 220//220 144//194 143//193
f 204//205 221//221 104//156 103//155
f 206//207 222//222 113//163 112//162
f 208//209 223//223 122//172 121//171
f 212//213 224//224 131//181 130//180
f 214//215 225//225 140//190 139//189
f 210//211 226//226 100//152 99//151
f 216//216 227//227 109//159 108//158
f 217//217 228//228 118//168 117//167
f 218//218 229//229 127//177 126//176
f 219//219 230//230 136//186 135//185
f 220//220 231//231 145//195 144//194
f 221//221 232//232 105//157 104//156
f 222//222 233//233 114//164 113//163
f 223//223 234//234 123//173 122//172
f 224//224 235//235 132//182 131//181
f 225//225 236//236 141//191 140//190
f 226//226 237//237 101//153 100//152
f 227//227 238//238 110//160 109//159
f 228//228 239//239 119//169 118//168
f 229//229 240//240 128//178 127//177
f 230//230 241//241 137//187 136//186
f 231//231 211//210 98//150 145//195
f 232//232 195//100 106//103 105//157
f 233//233 197//196 115//165 114//164
f 234//234 199//198 124//174 123//173
f 235//235 201//200 133//183 132//182
f 236//236 203//202 142//192 141//191
f 237//237 205//204 102//154 101//153
f 238//238 207//206 111//161 110//160
f 239//239 209//208 120//170 119//169
f 240//240 213//212 129//179 128//178
f 241//241 215//214 138//188 137//187
f 46//45 44//43 193//149 164//121
f 28//27 26//25 192//148 162//119
f 10//9 8//7 191//147 160//117
f 90//89 88//87 190//146 158//115
f 72//71 70//69 189//145 156//113
f 54//53 52//51 188//144 154//111
f 36//35 34//33 187//143 152//109
f 18//17 16//15 186//142 150//107
f 2//2 96//98 185//141 166//123
f 80//79 78//77 184//140 148//105
f 62//61 60//59 183//139 146//96
f 44//43 42//41 182//138 193//149
f 26//25 24//23 181//137 192//148
f 8//7 6//5 180//136 191//147
f 88//87 86//85 179//135 190//146
f 70//69 68//67 178//134 189//145
f 52//51 50//49 177//133 188//144
f 34//33 32//31 176//132 187//143
f 16//15 14//13 175//131 186//142
f 96//98 94//93 174//130 185//141
f 78//77 76//75 173//129 184//140
f 60//59 58//57 172//128 183//139
f 42//41 40//39 171//127 182//138
f 24//23 22//21 170//126 181//137
f 6//5 4//3 167//122 180//136
f 86//85 84//83 169//125 179//135
f 68//67 66//65 168//124 178//134
f 50//49 48//47 165//120 177//133
f 32//31 30//29 163//118 176//132
f 14//13 12//11 161//116 175//131
f 94//93 92//91 159//114 174//130
f 76//75 74//73 157//112 173//129
f 58//57 56//55 155//110 172//128
f 40//39 38//37 153//108 171//127
f 22//21 20//19 151//106 170//126
f 84//83 82//81 149//104 169//125
f 66//65 64//63 147//95 168//124
f 4//3 2//2 166//123 167//122
f 48//47 46//45 164//121 165//120
f 30//29 28//27 162//119 163//118
f 12//11 10//9 160//117 161//116
f 92//91 90//89 158//115 159//114
f 74//73 72//71 156//113 157//112
f 56//55 54//53 154//111 155//110
f 38//37 36//35 152//109 153//108
f 20//19 18//17 150//107 151//106
f 82//81 80//79 148//105 149//104
f 64//63 62//61 146//96 147//95
f 79//80 81//82 215//214 241//241
f 61//62 63//64 213//212 240//240
f 43//44 45//46 209//208 239//239
f 25//26 27//28 207//206 238//238
f 7//8 9//10 205//204 237//237
f 87//88 89//90 203//202 236//236
f 69//70 71//72 201//200 235//235
f 51//52 53//54 199//198 234//234
f 33//34 35//36 197//196 233//233
f 15//16 17//18 195//100 232//232
f 95//99 1//1 211//210 231//231
f 77//78 79//80 241//241 230//230
f 59//60 61//62 240//240 229//229
f 41//42 43//44 239//239 228//228
f 23//24 25//26 238//238 227//227
f 5//6 7//8 237//237 226//226
f 85//86 87//88 236//236 225//225
f 67//68 69//70 235//235 224//224
f 49//50 51//52 234//234 223//223
f 31//32 33//34 233//233 222//222
f 13//14 15//16 232//232 221//221
f 93//94 95//99 231//231 220//220
f 75//76 77//78 230//230 219//219
f 57//58 59//60 229//229 218//218
f 39//40 41//42 228//228 217//217
f 21//22 23//24 227//227 216//216
f 3//4 5//6 226//226 210//211
f 83//84 85//86 225//225 214//215
f 65//66 67//68 224//224 212//213
f 47//48 49//50 223//223 208//209
f 29//30 31//32 222//222 206//207
f 11//12 13//14 221//221 204//205
f 91//92 93//94 220//220 202//203
f 73//74 75//76 219//219 200//201
f 55//56 57//58 218//218 198//199
f 37//38 39//40 217//217 196//197
f 19//20 21//22 216//216 194//101
f 81//82 83//84 214//215 215//214
f 63//64 65//66 212//213 213//212
f 1//1 3//4 210//211 211//210
f 45//46 47//48 208//209 209//208
f 27//28 29//30 206//207 207//206
f 9//10 11//12 204//205 205//204
f 89//90 91//92 202//203 203//202
f 71//72 73//74 200//201 201//200
f 53//54 55//56 198//199 199//198
f 35//36 37//38 196//197 197//196
f 17//18 19//20 194//101 195//100
