# Blender v2.79 (sub 0) OBJ File: ''
# www.blender.org
o Cylinder.001_Cylinder.003
v 0.000000 -0.735051 -0.735051
v 0.000000 0.735051 -0.735051
v 0.095944 -0.735051 -0.728762
v 0.095944 0.735051 -0.728763
v 0.190245 -0.735051 -0.710005
v 0.190245 0.735051 -0.710005
v 0.281292 -0.735051 -0.679098
v 0.281292 0.735051 -0.679099
v 0.367526 -0.735051 -0.636573
v 0.367526 0.735051 -0.636573
v 0.447471 -0.735051 -0.583155
v 0.447471 0.735051 -0.583155
v 0.519760 -0.735051 -0.519759
v 0.519760 0.735051 -0.519760
v 0.583155 -0.735051 -0.447471
v 0.583155 0.735051 -0.447471
v 0.636573 -0.735051 -0.367525
v 0.636573 0.735051 -0.367526
v 0.679099 -0.735051 -0.281292
v 0.679099 0.735051 -0.281292
v 0.710005 -0.735051 -0.190245
v 0.710005 0.735051 -0.190245
v 0.728763 -0.735051 -0.095943
v 0.728763 0.735051 -0.095944
v 0.735051 -0.735051 -0.000000
v 0.735051 0.735051 -0.000000
v 0.728763 -0.735051 0.095943
v 0.728763 0.735051 0.095943
v 0.710005 -0.735051 0.190245
v 0.710005 0.735051 0.190245
v 0.679099 -0.735051 0.281292
v 0.679099 0.735051 0.281291
v 0.636573 -0.735051 0.367525
v 0.636573 0.735051 0.367525
v 0.583155 -0.735051 0.447471
v 0.583155 0.735051 0.447470
v 0.519760 -0.735051 0.519759
v 0.519760 0.735051 0.519759
v 0.447471 -0.735051 0.583155
v 0.447471 0.735051 0.583155
v 0.367526 -0.735051 0.636573
v 0.367526 0.735051 0.636572
v 0.281292 -0.735051 0.679098
v 0.281292 0.735051 0.679098
v 0.190246 -0.735051 0.710005
v 0.190246 0.735051 0.710004
v 0.095944 -0.735051 0.728762
v 0.095944 0.735051 0.728762
v 0.000000 -0.735051 0.735051
v 0.000000 0.735051 0.735051
v -0.095943 -0.735051 0.728763
v -0.095943 0.735051 0.728762
v -0.190245 -0.735051 0.710005
v -0.190245 0.735051 0.710005
v -0.281291 -0.735051 0.679099
v -0.281291 0.735051 0.679098
v -0.367525 -0.735051 0.636573
v -0.367525 0.735051 0.636573
v -0.447470 -0.735051 0.583155
v -0.447470 0.735051 0.583155
v -0.519759 -0.735051 0.519760
v -0.519759 0.735051 0.519760
v -0.583155 -0.735051 0.447471
v -0.583155 0.735051 0.447471
v -0.636572 -0.735051 0.367526
v -0.636572 0.735051 0.367525
v -0.679098 -0.735051 0.281292
v -0.679098 0.735051 0.281292
v -0.710005 -0.735051 0.190245
v -0.710005 0.735051 0.190245
v -0.728762 -0.735051 0.095943
v -0.728762 0.735051 0.095943
v -0.735051 -0.735051 -0.000000
v -0.735051 0.735051 -0.000001
v -0.728762 -0.735051 -0.095944
v -0.728762 0.735051 -0.095944
v -0.710004 -0.735051 -0.190246
v -0.710004 0.735051 -0.190246
v -0.679098 -0.735051 -0.281292
v -0.679098 0.735051 -0.281293
v -0.636572 -0.735051 -0.367526
v -0.636572 0.735051 -0.367526
v -0.583154 -0.735051 -0.447471
v -0.583154 0.735051 -0.447472
v -0.519758 -0.735051 -0.519760
v -0.519758 0.735051 -0.519761
v -0.447469 -0.735051 -0.583156
v -0.447469 0.735051 -0.583156
v -0.367524 -0.735051 -0.636573
v -0.367524 0.735051 -0.636574
v -0.281290 -0.735051 -0.679099
v -0.281290 0.735051 -0.679099
v -0.190243 -0.735051 -0.710005
v -0.190243 0.735051 -0.710005
v -0.095941 -0.735051 -0.728763
v -0.095941 0.735051 -0.728763
vn 0.0000 -0.6927 -0.7212
vn 0.0000 0.6927 -0.7212
vn 0.0941 0.6927 -0.7151
vn 0.0941 -0.6927 -0.7151
vn 0.1867 0.6927 -0.6967
vn 0.1867 -0.6927 -0.6967
vn 0.2760 0.6927 -0.6663
vn 0.2760 -0.6927 -0.6663
vn 0.3606 0.6927 -0.6246
vn 0.3606 -0.6927 -0.6246
vn 0.4391 0.6927 -0.5722
vn 0.4391 -0.6927 -0.5722
vn 0.5100 0.6927 -0.5100
vn 0.5100 -0.6927 -0.5100
vn 0.5722 0.6927 -0.4391
vn 0.5722 -0.6927 -0.4391
vn 0.6246 0.6927 -0.3606
vn 0.6246 -0.6927 -0.3606
vn 0.6663 0.6927 -0.2760
vn 0.6663 -0.6927 -0.2760
vn 0.6967 0.6927 -0.1867
vn 0.6967 -0.6927 -0.1867
vn 0.7151 0.6927 -0.0941
vn 0.7151 -0.6927 -0.0941
vn 0.7212 0.6927 -0.0000
vn 0.7212 -0.6927 -0.0000
vn 0.7151 0.6927 0.0941
vn 0.7151 -0.6927 0.0941
vn 0.6967 0.6927 0.1867
vn 0.6967 -0.6927 0.1867
vn 0.6663 0.6927 0.2760
vn 0.6663 -0.6927 0.2760
vn 0.6246 0.6927 0.3606
vn 0.6246 -0.6927 0.3606
vn 0.5722 0.6927 0.4391
vn 0.5722 -0.6927 0.4391
vn 0.5100 0.6927 0.5100
vn 0.5100 -0.6927 0.5100
vn 0.4391 0.6927 0.5722
vn 0.4391 -0.6927 0.5722
vn 0.3606 0.6927 0.6246
vn 0.3606 -0.6927 0.6246
vn 0.2760 0.6927 0.6663
vn 0.2760 -0.6927 0.6663
vn 0.1867 0.6927 0.6967
vn 0.1867 -0.6927 0.6967
vn 0.0941 0.6927 0.7151
vn 0.0941 -0.6927 0.7151
vn 0.0000 0.6927 0.7212
vn 0.0000 -0.6927 0.7212
vn -0.0941 0.6927 0.7151
vn -0.0941 -0.6927 0.7151
vn -0.1867 0.6927 0.6967
vn -0.1867 -0.6927 0.6967
vn -0.2760 0.6927 0.6663
vn -0.2760 -0.6927 0.6663
vn -0.3606 0.6927 0.6246
vn -0.3606 -0.6927 0.6246
vn -0.4391 0.6927 0.5722
vn -0.4391 -0.6927 0.5722
vn -0.5100 0.6927 0.5100
vn -0.5100 -0.6927 0.5100
vn -0.5722 0.6927 0.4391
vn -0.5722 -0.6927 0.4391
vn -0.6246 0.6927 0.3606
vn -0.6246 -0.6927 0.3606
vn -0.6663 0.6927 0.2760
vn -0.6663 -0.6927 0.2760
vn -0.6967 0.6927 0.1867
vn -0.6967 -0.6927 0.1867
vn -0.7151 0.6927 0.0941
vn -0.7151 -0.6927 0.0941
vn -0.7212 0.6927 -0.0000
vn -0.7212 -0.6927 -0.0000
vn -0.7151 0.6927 -0.0941
vn -0.7151 -0.6927 -0.0941
vn -0.6967 0.6927 -0.1867
vn -0.6967 -0.6927 -0.1867
vn -0.6663 0.6927 -0.2760
vn -0.6663 -0.6927 -0.2760
vn -0.6246 0.6927 -0.3606
vn -0.6246 -0.6927 -0.3606
vn -0.5722 0.6927 -0.4391
vn -0.5722 -0.6927 -0.4391
vn -0.5100 0.6927 -0.5100
vn -0.5100 -0.6927 -0.5100
vn -0.4391 0.6927 -0.5722
vn -0.4391 -0.6927 -0.5722
vn -0.3606 0.6927 -0.6246
vn -0.3606 -0.6927 -0.6246
vn -0.2760 0.6927 -0.6663
vn -0.2760 -0.6927 -0.6663
vn -0.1867 0.6927 -0.6967
vn -0.1867 -0.6927 -0.6967
vn -0.0941 0.6927 -0.7151
vn -0.0941 -0.6927 -0.7151
s 1
f 1//1 2//2 4//3 3//4
f 3//4 4//3 6//5 5//6
f 5//6 6//5 8//7 7//8
f 7//8 8//7 10//9 9//10
f 9//10 10//9 12//11 11//12
f 11//12 12//11 14//13 13//14
f 13//14 14//13 16//15 15//16
f 15//16 16//15 18//17 17//18
f 17//18 18//17 20//19 19//20
f 19//20 20//19 22//21 21//22
f 21//22 22//21 24//23 23//24
f 23//24 24//23 26//25 25//26
f 25//26 26//25 28//27 27//28
f 27//28 28//27 30//29 29//30
f 29//30 30//29 32//31 31//32
f 31//32 32//31 34//33 33//34
f 33//34 34//33 36//35 35//36
f 35//36 36//35 38//37 37//38
f 37//38 38//37 40//39 39//40
f 39//40 40//39 42//41 41//42
f 41//42 42//41 44//43 43//44
f 43//44 44//43 46//45 45//46
f 45//46 46//45 48//47 47//48
f 47//48 48//47 50//49 49//50
f 49//50 50//49 52//51 51//52
f 51//52 52//51 54//53 53//54
f 53//54 54//53 56//55 55//56
f 55//56 56//55 58//57 57//58
f 57//58 58//57 60//59 59//60
f 59//60 60//59 62//61 61//62
f 61//62 62//61 64//63 63//64
f 63//64 64//63 66//65 65//66
f 65//66 66//65 68//67 67//68
f 67//68 68//67 70//69 69//70
f 69//70 70//69 72//71 71//72
f 71//72 72//71 74//73 73//74
f 73//74 74//73 76//75 75//76
f 75//76 76//75 78//77 77//78
f 77//78 78//77 80//79 79//80
f 79//80 80//79 82//81 81//82
f 81//82 82//81 84//83 83//84
f 83//84 84//83 86//85 85//86
f 85//86 86//85 88//87 87//88
f 87//88 88//87 90//89 89//90
f 89//90 90//89 92//91 91//92
f 91//92 92//91 94//93 93//94
f 4//3 2//2 96//95 94//93 92//91 90//89 88//87 86//85 84//83 82//81 80//79 78//77 76//75 74//73 72//71 70//69 68//67 66//65 64//63 62//61 60//59 58//57 56//55 54//53 52//51 50//49 48//47 46//45 44//43 42//41 40//39 38//37 36//35 34//33 32//31 30//29 28//27 26//25 24//23 22//21 20//19 18//17 16//15 14//13 12//11 10//9 8//7 6//5
f 93//94 94//93 96//95 95//96
f 95//96 96//95 2//2 1//1
f 1//1 3//4 5//6 7//8 9//10 11//12 13//14 15//16 17//18 19//20 21//22 23//24 25//26 27//28 29//30 31//32 33//34 35//36 37//38 39//40 41//42 43//44 45//46 47//48 49//50 51//52 53//54 55//56 57//58 59//60 61//62 63//64 65//66 67//68 69//70 71//72 73//74 75//76 77//78 79//80 81//82 83//84 85//86 87//88 89//90 91//92 93//94 95//96
