# Blender v2.79 (sub 0) OBJ File: ''
# www.blender.org
o Cube.001_Cube.006
v -0.147614 -3.665356 0.147614
v -0.147614 -3.565356 0.247614
v -0.247614 -3.565356 0.147614
v -0.147614 -3.636067 0.218325
v -0.205349 -3.623091 0.205349
v -0.218324 -3.565356 0.218325
v -0.218324 -3.636067 0.147614
v -0.147614 -0.075126 0.247614
v -0.147614 0.024874 0.147614
v -0.247614 -0.075126 0.147614
v -0.147614 -0.004416 0.218324
v -0.205349 -0.017391 0.205349
v -0.218324 -0.004416 0.147614
v -0.218324 -0.075126 0.218324
v -0.147614 -3.665356 -0.147613
v -0.247614 -3.565356 -0.147613
v -0.147614 -3.565356 -0.247613
v -0.218324 -3.636067 -0.147613
v -0.205349 -3.623091 -0.205348
v -0.218324 -3.565356 -0.218324
v -0.147614 -3.636067 -0.218324
v -0.147614 0.024873 -0.147614
v -0.147614 -0.075127 -0.247614
v -0.247614 -0.075127 -0.147614
v -0.147614 -0.004416 -0.218324
v -0.205349 -0.017392 -0.205349
v -0.218324 -0.075127 -0.218324
v -0.218324 -0.004416 -0.147614
v 0.147614 -3.665356 0.147614
v 0.247614 -3.565356 0.147614
v 0.147614 -3.565356 0.247614
v 0.218324 -3.636067 0.147614
v 0.205349 -3.623091 0.205349
v 0.218324 -3.565356 0.218325
v 0.147614 -3.636067 0.218325
v 0.147614 0.024874 0.147614
v 0.147614 -0.075126 0.247614
v 0.247614 -0.075126 0.147614
v 0.147614 -0.004416 0.218324
v 0.205349 -0.017391 0.205349
v 0.218324 -0.075126 0.218324
v 0.218324 -0.004416 0.147614
v 0.147614 -3.665356 -0.147613
v 0.147614 -3.565356 -0.247613
v 0.247614 -3.565356 -0.147613
v 0.147614 -3.636067 -0.218324
v 0.205349 -3.623091 -0.205348
v 0.218324 -3.565356 -0.218324
v 0.218324 -3.636067 -0.147613
v 0.147614 0.024873 -0.147614
v 0.247614 -0.075127 -0.147614
v 0.147614 -0.075127 -0.247614
v 0.218324 -0.004416 -0.147614
v 0.205349 -0.017392 -0.205349
v 0.218324 -0.075127 -0.218324
v 0.147614 -0.004416 -0.218324
v -0.675431 -3.646361 0.174499
v -0.675439 -3.546361 0.274508
v -0.775431 -3.546135 0.175815
v -0.675435 -3.617072 0.245214
v -0.733168 -3.603966 0.232996
v -0.746146 -3.546201 0.246145
v -0.746140 -3.616912 0.175428
v -0.675439 -3.160930 0.274508
v -0.675431 -3.060930 0.174499
v -0.775431 -3.160704 0.175815
v -0.675435 -3.090219 0.245214
v -0.733168 -3.103065 0.232996
v -0.746140 -3.090060 0.175428
v -0.746146 -3.160771 0.246145
v -0.675431 -3.646361 -0.182856
v -0.775431 -3.546135 -0.181557
v -0.675439 -3.546361 -0.282865
v -0.746140 -3.616912 -0.181936
v -0.733168 -3.603966 -0.239843
v -0.746146 -3.546202 -0.252653
v -0.675435 -3.617072 -0.253571
v -0.675431 -3.060930 -0.182856
v -0.675439 -3.160930 -0.282865
v -0.775431 -3.160704 -0.181557
v -0.675435 -3.090219 -0.253571
v -0.733168 -3.103065 -0.239843
v -0.746146 -3.160771 -0.252653
v -0.746140 -3.090060 -0.181936
v 0.166939 -3.648261 0.163484
v 0.266939 -3.548486 0.162185
v 0.166947 -3.548260 0.263492
v 0.237648 -3.619130 0.162563
v 0.224675 -3.606125 0.220471
v 0.237653 -3.548419 0.233280
v 0.166943 -3.618971 0.234199
v 0.166939 -3.062829 0.163484
v 0.166947 -3.162829 0.263492
v 0.266939 -3.163055 0.162185
v 0.166943 -3.092118 0.234199
v 0.224675 -3.105224 0.220471
v 0.237654 -3.162988 0.233280
v 0.237648 -3.092278 0.162563
v 0.166939 -3.648260 -0.193871
v 0.166947 -3.548260 -0.293880
v 0.266939 -3.548486 -0.195188
v 0.166943 -3.618971 -0.264587
v 0.224675 -3.606126 -0.252368
v 0.237654 -3.548420 -0.265517
v 0.237648 -3.619130 -0.194800
v 0.166939 -3.062829 -0.193872
v 0.266939 -3.163055 -0.195188
v 0.166947 -3.162829 -0.293880
v 0.237648 -3.092278 -0.194800
v 0.224675 -3.105225 -0.252368
v 0.237654 -3.162989 -0.265517
v 0.166943 -3.092119 -0.264587
vn 0.1794 -0.1794 0.9673
vn 0.1794 0.1794 0.9673
vn -0.1794 0.1794 0.9673
vn -0.1794 -0.1794 0.9673
vn 0.9673 -0.1794 -0.1794
vn 0.9673 0.1794 -0.1794
vn 0.9673 0.1794 0.1794
vn 0.9673 -0.1794 0.1794
vn -0.1834 -0.9666 -0.1790
vn 0.1753 -0.9680 -0.1797
vn 0.1794 -0.9673 0.1791
vn -0.1793 -0.9673 0.1796
vn 0.1794 0.9673 -0.1794
vn -0.1794 0.9673 -0.1794
vn -0.1794 0.9673 0.1794
vn 0.1794 0.9673 0.1794
vn -0.9673 -0.1794 0.1794
vn -0.9673 0.1794 0.1794
vn -0.9673 0.1794 -0.1794
vn -0.9673 -0.1794 -0.1794
vn -0.1794 -0.1794 -0.9673
vn -0.1794 0.1794 -0.9673
vn 0.1794 0.1794 -0.9673
vn 0.1794 -0.1794 -0.9673
vn 0.1906 -0.1792 0.9652
vn 0.1913 0.1791 0.9651
vn -0.1674 0.1797 0.9694
vn -0.1681 -0.1796 0.9693
vn 0.9670 -0.1798 -0.1804
vn 0.9671 0.1795 -0.1803
vn 0.9676 0.1789 0.1783
vn 0.9675 -0.1793 0.1783
vn 0.1793 0.9673 -0.1796
vn -0.1794 0.9673 -0.1791
vn -0.1753 0.9680 0.1797
vn 0.1834 0.9666 0.1790
vn -0.9671 -0.1795 0.1803
vn -0.9670 0.1798 0.1804
vn -0.9675 0.1793 -0.1783
vn -0.9676 -0.1789 -0.1783
vn -0.1913 -0.1791 -0.9651
vn -0.1906 0.1792 -0.9652
vn 0.1681 0.1796 -0.9693
vn 0.1674 -0.1797 -0.9694
vn -0.1794 -0.9673 0.1794
vn -0.1726 -0.6965 0.6965
vn -0.5774 -0.5773 0.5774
vn -0.6965 -0.6965 0.1726
vn -0.6965 -0.1726 0.6965
vn -0.1726 0.6965 0.6965
vn -0.5774 0.5774 0.5774
vn -0.6965 0.1726 0.6965
vn -0.6965 0.6965 0.1726
vn -0.1794 -0.9673 -0.1794
vn -0.6965 -0.6965 -0.1726
vn -0.5774 -0.5774 -0.5774
vn -0.1726 -0.6965 -0.6965
vn -0.6965 -0.1726 -0.6965
vn -0.1726 0.6965 -0.6965
vn -0.5774 0.5774 -0.5774
vn -0.6965 0.6965 -0.1726
vn -0.6965 0.1726 -0.6965
vn 0.1794 -0.9673 0.1794
vn 0.6965 -0.6965 0.1726
vn 0.5774 -0.5773 0.5774
vn 0.1726 -0.6965 0.6965
vn 0.6965 -0.1726 0.6965
vn 0.1726 0.6965 0.6965
vn 0.5774 0.5774 0.5774
vn 0.6965 0.6965 0.1726
vn 0.6965 0.1726 0.6965
vn 0.1794 -0.9673 -0.1794
vn 0.1726 -0.6965 -0.6965
vn 0.5774 -0.5774 -0.5774
vn 0.6965 -0.6965 -0.1726
vn 0.6965 -0.1726 -0.6965
vn 0.6965 0.6965 -0.1726
vn 0.5774 0.5774 -0.5774
vn 0.1726 0.6965 -0.6965
vn 0.6965 0.1726 -0.6965
vn -0.1657 -0.6972 0.6975
vn -0.5737 -0.5780 0.5803
vn -0.6962 -0.6966 0.1733
vn -0.6920 -0.1733 0.7008
vn -0.1629 0.6976 0.6978
vn -0.5722 0.5791 0.5807
vn -0.6916 0.1736 0.7011
vn -0.6946 0.6981 0.1736
vn -0.6983 -0.6949 -0.1715
vn -0.5824 -0.5757 -0.5739
vn -0.1822 -0.6955 -0.6951
vn -0.7013 -0.1715 -0.6919
vn -0.1793 0.6959 -0.6954
vn -0.5809 0.5768 -0.5743
vn -0.6967 0.6964 -0.1718
vn -0.7010 0.1718 -0.6922
vn 0.6967 -0.6964 0.1718
vn 0.5809 -0.5768 0.5743
vn 0.1793 -0.6959 0.6954
vn 0.7010 -0.1718 0.6922
vn 0.1822 0.6955 0.6951
vn 0.5824 0.5757 0.5739
vn 0.6983 0.6949 0.1715
vn 0.7013 0.1715 0.6919
vn 0.1629 -0.6976 -0.6978
vn 0.5722 -0.5791 -0.5807
vn 0.6946 -0.6981 -0.1736
vn 0.6916 -0.1736 -0.7011
vn 0.6962 0.6966 -0.1733
vn 0.5737 0.5780 -0.5803
vn 0.1657 0.6972 -0.6975
vn 0.6920 0.1733 -0.7008
s 1
f 31//1 37//2 8//3 2//4
f 45//5 51//6 38//7 30//8
f 71//9 99//10 85//11 57//12
f 50//13 22//14 9//15 36//16
f 3//17 10//18 24//19 16//20
f 17//21 23//22 52//23 44//24
f 87//25 93//26 64//27 58//28
f 101//29 107//30 94//31 86//32
f 106//33 78//34 65//35 92//36
f 59//37 66//38 80//39 72//40
f 73//41 79//42 108//43 100//44
f 1//45 4//46 5//47 7//48
f 2//4 6//49 5//47 4//46
f 3//17 7//48 5//47 6//49
f 8//3 11//50 12//51 14//52
f 9//15 13//53 12//51 11//50
f 10//18 14//52 12//51 13//53
f 15//54 18//55 19//56 21//57
f 16//20 20//58 19//56 18//55
f 17//21 21//57 19//56 20//58
f 22//14 25//59 26//60 28//61
f 23//22 27//62 26//60 25//59
f 24//19 28//61 26//60 27//62
f 29//63 32//64 33//65 35//66
f 30//8 34//67 33//65 32//64
f 31//1 35//66 33//65 34//67
f 36//16 39//68 40//69 42//70
f 37//2 41//71 40//69 39//68
f 38//7 42//70 40//69 41//71
f 43//72 46//73 47//74 49//75
f 44//24 48//76 47//74 46//73
f 45//5 49//75 47//74 48//76
f 50//13 53//77 54//78 56//79
f 51//6 55//80 54//78 53//77
f 52//23 56//79 54//78 55//80
f 57//12 60//81 61//82 63//83
f 58//28 62//84 61//82 60//81
f 59//37 63//83 61//82 62//84
f 64//27 67//85 68//86 70//87
f 65//35 69//88 68//86 67//85
f 66//38 70//87 68//86 69//88
f 71//9 74//89 75//90 77//91
f 72//40 76//92 75//90 74//89
f 73//41 77//91 75//90 76//92
f 78//34 81//93 82//94 84//95
f 79//42 83//96 82//94 81//93
f 80//39 84//95 82//94 83//96
f 85//11 88//97 89//98 91//99
f 86//32 90//100 89//98 88//97
f 87//25 91//99 89//98 90//100
f 92//36 95//101 96//102 98//103
f 93//26 97//104 96//102 95//101
f 94//31 98//103 96//102 97//104
f 99//10 102//105 103//106 105//107
f 100//44 104//108 103//106 102//105
f 101//29 105//107 103//106 104//108
f 106//33 109//109 110//110 112//111
f 107//30 111//112 110//110 109//109
f 108//43 112//111 110//110 111//112
f 15//54 1//45 7//48 18//55
f 18//55 7//48 3//17 16//20
f 2//4 8//3 14//52 6//49
f 6//49 14//52 10//18 3//17
f 9//15 22//14 28//61 13//53
f 13//53 28//61 24//19 10//18
f 23//22 17//21 20//58 27//62
f 27//62 20//58 16//20 24//19
f 43//72 15//54 21//57 46//73
f 46//73 21//57 17//21 44//24
f 22//14 50//13 56//79 25//59
f 25//59 56//79 52//23 23//22
f 51//6 45//5 48//76 55//80
f 55//80 48//76 44//24 52//23
f 29//63 43//72 49//75 32//64
f 32//64 49//75 45//5 30//8
f 50//13 36//16 42//70 53//77
f 53//77 42//70 38//7 51//6
f 37//2 31//1 34//67 41//71
f 41//71 34//67 30//8 38//7
f 1//45 29//63 35//66 4//46
f 4//46 35//66 31//1 2//4
f 36//16 9//15 11//50 39//68
f 39//68 11//50 8//3 37//2
f 71//9 57//12 63//83 74//89
f 74//89 63//83 59//37 72//40
f 58//28 64//27 70//87 62//84
f 62//84 70//87 66//38 59//37
f 65//35 78//34 84//95 69//88
f 69//88 84//95 80//39 66//38
f 79//42 73//41 76//92 83//96
f 83//96 76//92 72//40 80//39
f 99//10 71//9 77//91 102//105
f 102//105 77//91 73//41 100//44
f 78//34 106//33 112//111 81//93
f 81//93 112//111 108//43 79//42
f 107//30 101//29 104//108 111//112
f 111//112 104//108 100//44 108//43
f 85//11 99//10 105//107 88//97
f 88//97 105//107 101//29 86//32
f 106//33 92//36 98//103 109//109
f 109//109 98//103 94//31 107//30
f 93//26 87//25 90//100 97//104
f 97//104 90//100 86//32 94//31
f 57//12 85//11 91//99 60//81
f 60//81 91//99 87//25 58//28
f 92//36 65//35 67//85 95//101
f 95//101 67//85 64//27 93//26
f 15//54 43//72 29//63 1//45
